<svg width="186" height="186" viewBox="0 0 186 186" fill="none" xmlns="http://www.w3.org/2000/svg">
<path fill-rule="evenodd" clip-rule="evenodd" d="M108.093 0.0525287L169.86 0.052496C178.389 0.0524914 185.302 6.96605 185.302 15.4944V169.861C185.302 178.389 178.389 185.303 169.86 185.303H108.093C99.5647 185.303 92.6511 178.389 92.6511 169.861L92.6513 15.4944C92.6513 6.96606 99.5649 0.0525333 108.093 0.0525287ZM154.447 31.0305V154.406H123.595L122.992 85.5678C113.09 94.5402 109.649 97.5614 92.7416 102.888V82.2606C105.344 79.7811 111.606 74.0911 120.099 66.3739C121.033 65.5255 121.994 64.6527 122.992 63.7569L123.595 31.0305H154.447Z" fill="#01316E"/>
<path fill-rule="evenodd" clip-rule="evenodd" d="M30.4331 154.406V31.0305H61.285L61.8898 63.7569C71.974 72.8013 78.1507 79.5085 92.1387 82.2606V102.888C75.2318 97.5614 71.7924 94.5402 61.8898 85.5678L61.285 154.406H30.4331Z" fill="#01316E"/>
</svg>
